#!OML:ASF G:\JayActor3\Patient Classification 1\Patient 1\Session 6\male.ASF
:FULLY-SPECIFIED
:DEGREES
1333
root -7.59301 15.7248 7.73264 -350.8 -47.7301 4.85742
lowerback 32.7815 -1.66947 -2.4244
upperback 6.55276 -3.26475 -0.160954
thorax -9.4699 -1.60131 2.35041
lowerneck 14.7795 -0.721359 -1.29546
upperneck -22.6258 -0.249566 5.08076
head -9.57995 -0.665225 2.02793
rclavicle 3.57812e-014 1.76918e-014
rhumerus -42.4627 5.79971 -86.9635
rradius 63.7682
rwrist -3.52711
rhand -23.9549 2.81219
rfingers 7.12502
rthumb 2.5209 -27.1527
lclavicle 3.57812e-014 1.76918e-014
lhumerus -46.7091 -13.2945 84.9333
lradius 62.4849
lwrist 39.218
lhand -28.1514 -5.68244
lfingers 7.12502
lthumb -1.53209 24.2918
rfemur -70.9801 2.10928 25.9154
rtibia 95.0886
rfoot -2.22123 -17.2134
rtoes 12.5736
lfemur -46.1309 10.6581 -21.8975
ltibia 39.2476
lfoot -8.18564 -0.912926
ltoes -4.96585
1334
root -7.67327 15.7289 7.87806 -351.07 -47.9035 5.65026
lowerback 32.6605 -1.80951 -2.53849
upperback 6.40295 -3.48282 -0.262549
thorax -9.57716 -1.69199 2.3843
lowerneck 13.7371 -1.00449 -1.50099
upperneck -21.8169 -0.611592 5.58073
head -9.08438 -0.855457 2.24855
rclavicle 4.94974e-014 3.06128e-014
rhumerus -42.6418 5.90486 -87.1307
rradius 63.2913
rwrist -3.56277
rhand -23.8971 2.87308
rfingers 7.12502
rthumb 2.57673 -27.0911
lclavicle 4.94974e-014 3.06128e-014
lhumerus -46.7352 -13.3154 84.9226
lradius 62.3378
lwrist 39.1543
lhand -28.183 -5.50539
lfingers 7.12502
lthumb -1.56267 24.4686
rfemur -72.2013 1.44369 25.7657
rtibia 93.887
rfoot -4.10181 -16.9785
rtoes 11.5906
lfemur -46.4019 11.2985 -22.9944
ltibia 40.1835
lfoot -8.78947 -1.0311
ltoes -4.85579
1335
root -7.75935 15.6925 8.03064 -351.429 -48.0504 6.55253
lowerback 32.559 -1.93567 -2.73586
upperback 6.23446 -3.71092 -0.356976
thorax -9.70657 -1.78408 2.47496
lowerneck 12.4891 -1.30503 -1.74705
upperneck -20.7492 -1.00456 6.13129
head -8.46547 -1.05405 2.47838
rclavicle 4.96962e-014 4.65156e-014
rhumerus -42.7937 6.00817 -87.2859
rradius 62.7059
rwrist -3.58004
rhand -23.865 2.95156
rfingers 7.12502
rthumb 2.60771 -27.0122
lclavicle 4.96962e-014 4.65156e-014
lhumerus -46.7888 -13.3714 84.9806
lradius 62.1669
lwrist 39.1146
lhand -28.2212 -5.30444
lfingers 7.12502
lthumb -1.59953 24.6693
rfemur -73.4866 0.834094 25.5698
rtibia 92.5778
rfoot -6.03905 -16.6325
rtoes 10.3557
lfemur -46.7339 11.8264 -24.1164
ltibia 41.1697
lfoot -9.51149 -1.13788
ltoes -4.86472
1336
root -7.84949 15.6784 8.17644 -351.847 -48.1833 7.48556
lowerback 32.5115 -2.03493 -2.97224
upperback 6.04242 -3.91962 -0.442599
thorax -9.88064 -1.86395 2.59153
lowerneck 11.0681 -1.63644 -1.98817
upperneck -19.4112 -1.44425 6.70851
head -7.73077 -1.26786 2.70037
rclavicle 1.59028e-014 -4.01545e-014
rhumerus -42.9502 6.05946 -87.4339
rradius 62.0329
rwrist -3.55209
rhand -23.8629 3.05016
rfingers 7.12502
rthumb 2.6098 -26.9136
lclavicle 1.59028e-014 -4.01545e-014
lhumerus -46.8841 -13.4995 85.1012
lradius 61.9673
lwrist 39.1253
lhand -28.2654 -5.13727
lfingers 7.12502
lthumb -1.64226 24.8362
rfemur -74.3661 0.293907 25.3665
rtibia 90.7183
rfoot -7.95693 -16.1799
rtoes 8.85465
lfemur -46.8704 12.2847 -25.1862
ltibia 41.9783
lfoot -10.3003 -1.22601
ltoes -4.92893
1337
root -7.94412 15.6682 8.31944 -352.281 -48.3246 8.37606
lowerback 32.5269 -2.11389 -3.22518
upperback 5.8348 -4.10887 -0.501846
thorax -10.0943 -1.93212 2.74106
lowerneck 9.45337 -1.97908 -2.23568
upperneck -17.7838 -1.91688 7.27292
head -6.87732 -1.48303 2.89904
rclavicle 1.00386e-014 -9.54166e-015
rhumerus -43.096 6.11642 -87.5729
rradius 61.2834
rwrist -3.47021
rhand -23.8909 3.16262
rfingers 7.12502
rthumb 2.58275 -26.8015
lclavicle 1.00386e-014 -9.54166e-015
lhumerus -46.9871 -13.6127 85.2839
lradius 61.7034
lwrist 39.1854
lhand -28.3471 -4.98367
lfingers 7.12502
lthumb -1.72112 24.9891
rfemur -74.9405 -0.143619 25.1958
rtibia 88.4543
rfoot -9.83829 -15.661
rtoes 7.20858
lfemur -46.8939 12.7017 -26.1468
ltibia 42.7344
lfoot -11.1547 -1.30054
ltoes -4.93882
1338
root -8.04292 15.6638 8.45995 -352.698 -48.4939 9.18104
lowerback 32.5941 -2.16783 -3.44754
upperback 5.61828 -4.2574 -0.537201
thorax -10.3406 -1.98015 2.88772
lowerneck 7.66862 -2.3379 -2.48137
upperneck -15.8952 -2.43198 7.80493
head -5.92403 -1.70228 3.06795
rclavicle 4.14466e-014 -4.07509e-015
rhumerus -43.2308 6.15072 -87.6922
rradius 60.4728
rwrist -3.32181
rhand -23.9273 3.28253
rfingers 7.12502
rthumb 2.54754 -26.682
lclavicle 4.14466e-014 -4.07509e-015
lhumerus -47.098 -13.7352 85.517
lradius 61.3889
lwrist 39.2711
lhand -28.4363 -4.86497
lfingers 7.12502
lthumb -1.8073 25.1071
rfemur -75.1874 -0.472001 25.0797
rtibia 85.7433
rfoot -11.693 -15.1125
rtoes 5.70633
lfemur -46.717 13.1083 -26.9741
ltibia 43.2526
lfoot -11.9587 -1.3609
ltoes -4.88374
1339
root -8.14527 15.6671 8.59885 -353.084 -48.7038 9.89756
lowerback 32.6817 -2.20228 -3.62188
upperback 5.39724 -4.36576 -0.556093
thorax -10.6045 -2.00948 3.01323
lowerneck 5.7627 -2.69997 -2.71262
upperneck -13.8002 -2.97358 8.27296
head -4.90175 -1.91702 3.19675
rclavicle 5.86415e-015 2.77305e-014
rhumerus -43.3504 6.16889 -87.7945
rradius 59.6177
rwrist -3.12408
rhand -23.9388 3.39389
rfingers 7.12502
rthumb 2.53646 -26.5708
lclavicle 5.86415e-015 2.77305e-014
lhumerus -47.2126 -13.8601 85.7895
lradius 61.0279
lwrist 39.3354
lhand -28.5183 -4.75988
lfingers 7.12502
lthumb -1.88645 25.2115
rfemur -75.1206 -0.706091 25.0164
rtibia 82.6229
rfoot -13.482 -14.566
rtoes 4.34401
lfemur -46.3773 13.5106 -27.675
ltibia 43.5864
lfoot -12.7305 -1.39925
ltoes -4.804
1340
root -8.25069 15.6798 8.7371 -353.427 -48.9773 10.5396
lowerback 32.7564 -2.21846 -3.749
upperback 5.17076 -4.43509 -0.568065
thorax -10.875 -2.0213 3.10686
lowerneck 3.79585 -3.05377 -2.92272
upperneck -11.5663 -3.52454 8.6575
head -3.84384 -2.12046 3.2822
rclavicle -5.01931e-015 3.47873e-015
rhumerus -43.455 6.18489 -87.8859
rradius 58.7258
rwrist -2.8923
rhand -23.9073 3.49569
rfingers 7.12502
rthumb 2.56684 -26.4686
lclavicle -5.01931e-015 3.47873e-015
lhumerus -47.3421 -13.9663 86.0884
lradius 60.6412
lwrist 39.3381
lhand -28.5926 -4.63837
lfingers 7.12502
lthumb -1.95824 25.3324
rfemur -74.7688 -0.846556 24.9916
rtibia 79.1216
rfoot -15.2466 -14.0642
rtoes 3.02773
lfemur -45.8792 13.912 -28.2644
ltibia 43.7136
lfoot -13.4531 -1.4033
ltoes -4.63563
1341
root -8.35881 15.702 8.87547 -353.73 -49.3033 11.1332
lowerback 32.7784 -2.227 -3.83874
upperback 4.95077 -4.47973 -0.573732
thorax -11.1214 -2.0236 3.17607
lowerneck 1.86326 -3.38199 -3.12452
upperneck -9.07698 -4.09322 8.71268
head -3.02183 -2.29144 3.58856
rclavicle 1.0297e-013 -4.69629e-014
rhumerus -43.5217 6.22519 -87.9667
rradius 57.8027
rwrist -2.64284
rhand -23.8306 3.57882
rfingers 7.12502
rthumb 2.64097 -26.3846
lclavicle 1.0297e-013 -4.69629e-014
lhumerus -47.4809 -14.0333 86.4041
lradius 60.2531
lwrist 39.2352
lhand -28.6386 -4.52183
lfingers 7.12502
lthumb -2.00265 25.4485
rfemur -74.1675 -0.922621 24.989
rtibia 75.2924
rfoot -16.9013 -13.6427
rtoes 1.56142
lfemur -45.2449 14.3115 -28.7862
ltibia 43.6254
lfoot -14.1088 -1.31707
ltoes -4.79434
1342
root -8.46942 15.733 9.01462 -354.018 -49.697 11.7134
lowerback 32.7374 -2.21739 -3.90156
upperback 4.74004 -4.49129 -0.589457
thorax -11.3374 -2.01307 3.20506
lowerneck 0.0131026 -3.68483 -3.26235
upperneck -6.98164 -4.5836 8.93407
head -1.93553 -2.46189 3.5633
rclavicle 3.31101e-014 8.57259e-015
rhumerus -43.5505 6.26944 -88.0466
rradius 56.847
rwrist -2.37207
rhand -23.7552 3.65901
rfingers 7.12502
rthumb 2.71379 -26.3035
lclavicle 3.31101e-014 8.57259e-015
lhumerus -47.6338 -14.0911 86.7291
lradius 59.882
lwrist 39.0492
lhand -28.667 -4.40193
lfingers 7.12502
lthumb -2.03008 25.5682
rfemur -73.3429 -0.930903 24.9839
rtibia 71.1999
rfoot -18.418 -13.3148
rtoes -0.0242921
lfemur -44.4766 14.7026 -29.2569
ltibia 43.3287
lfoot -14.6876 -1.14805
ltoes -5.09714
1343
root -8.58228 15.7711 9.15497 -354.313 -50.1594 12.2978
lowerback 32.6385 -2.19317 -3.95038
upperback 4.54005 -4.47861 -0.614639
thorax -11.5215 -1.99368 3.20457
lowerneck -1.66799 -3.95337 -3.36546
upperneck -5.01917 -5.03123 9.06242
head -0.961615 -2.60934 3.52109
rclavicle 8.7341e-015 -1.55549e-014
rhumerus -43.5391 6.34791 -88.1277
rradius 55.8698
rwrist -2.10657
rhand -23.6807 3.72575
rfingers 7.12502
rthumb 2.78574 -26.2358
lclavicle 8.7341e-015 -1.55549e-014
lhumerus -47.8036 -14.12 87.0613
lradius 59.5349
lwrist 38.8262
lhand -28.6905 -4.29374
lfingers 7.12502
lthumb -2.05277 25.6761
rfemur -72.324 -0.874787 24.961
rtibia 66.9285
rfoot -19.7454 -13.08
rtoes -1.5999
lfemur -43.5882 15.087 -29.6942
ltibia 42.8479
lfoot -15.1812 -0.905602
ltoes -5.50785
1344
root -8.69759 15.8139 9.2965 -354.635 -50.6857 12.8969
lowerback 32.4956 -2.15367 -3.99703
upperback 4.3535 -4.44501 -0.646469
thorax -11.6747 -1.96668 3.18548
lowerneck -3.12678 -4.18303 -3.43138
upperneck -3.26599 -5.42286 9.09961
head -0.115853 -2.73369 3.46661
rclavicle 9.93923e-017 2.34069e-014
rhumerus -43.4876 6.47207 -88.2091
rradius 54.8847
rwrist -1.85949
rhand -23.6043 3.7821
rfingers 7.12502
rthumb 2.85954 -26.1785
lclavicle 9.93923e-017 2.34069e-014
lhumerus -47.9958 -14.1144 87.3965
lradius 59.2191
lwrist 38.6181
lhand -28.6874 -4.24325
lfingers 7.12502
lthumb -2.04983 25.7266
rfemur -71.1352 -0.753749 24.9069
rtibia 62.5807
rfoot -20.9213 -12.9218
rtoes -2.93089
lfemur -42.5938 15.4731 -30.1079
ltibia 42.2197
lfoot -15.5886 -0.603874
ltoes -5.93525
1345
root -8.81549 15.8593 9.43904 -355.001 -51.2782 13.5179
lowerback 32.3159 -2.09756 -4.05899
upperback 4.18441 -4.39447 -0.681365
thorax -11.7932 -1.93347 3.16251
lowerneck -4.35777 -4.3619 -3.44573
upperneck -1.74329 -5.73855 9.03452
head 0.605164 -2.82891 3.39014
rclavicle -1.55052e-014 4.59193e-014
rhumerus -43.3953 6.65331 -88.2889
rradius 53.9155
rwrist -1.64847
rhand -23.5114 3.83424
rfingers 7.12502
rthumb 2.94919 -26.1251
lclavicle -1.55052e-014 4.59193e-014
lhumerus -48.2041 -14.0742 87.7309
lradius 58.9308
lwrist 38.4807
lhand -28.6774 -4.25083
lfingers 7.12502
lthumb -2.04015 25.7192
rfemur -69.8142 -0.558556 24.8073
rtibia 58.2717
rfoot -21.9424 -12.8116
rtoes -4.0685
lfemur -41.5113 15.8631 -30.5008
ltibia 41.484
lfoot -15.9165 -0.246934
ltoes -6.4004
1346
root -8.93646 15.9048 9.58183 -355.412 -51.9149 14.1499
lowerback 32.1145 -2.03204 -4.1347
upperback 4.03178 -4.33462 -0.709349
thorax -11.8829 -1.89709 3.14912
lowerneck -5.37728 -4.48691 -3.42283
upperneck -0.431624 -5.97194 8.88225
head 1.21598 -2.89323 3.29417
rclavicle 1.0635e-014 4.17448e-015
rhumerus -43.2753 6.89675 -88.3597
rradius 52.9971
rwrist -1.48507
rhand -23.3791 3.87855
rfingers 7.12502
rthumb 3.07704 -26.079
lclavicle 1.0635e-014 4.17448e-015
lhumerus -48.4358 -13.9885 88.0605
lradius 58.6803
lwrist 38.4252
lhand -28.6738 -4.28701
lfingers 7.12502
lthumb -2.03669 25.683
rfemur -68.3979 -0.290756 24.6558
rtibia 54.1263
rfoot -23.0218 -12.7703
rtoes -4.68961
lfemur -40.3683 16.2683 -30.8792
ltibia 40.6832
lfoot -16.1539 0.168444
ltoes -7.01383
